<svg version="1.1" id="Layer_1" xmlns="http://www.w3.org/2000/svg" xmlns:xlink="http://www.w3.org/1999/xlink" x="0px" y="0px" viewBox="0 0 500 500" style="width: 166px;" xml:space="preserve" data-imageid="404-page-not-found-1-15" imageName="404 Page Not Found 1" class="illustrations_image">
<style type="text/css">
	.st0_404-page-not-found-1-15{fill:#68E1FD;}
	.st1_404-page-not-found-1-15{fill:#093F68;}
	.st2_404-page-not-found-1-15{fill:#FFFFFF;}
	.st3_404-page-not-found-1-15{fill:#F56132;}
	.st4_404-page-not-found-1-15{fill:#DFEAEF;}
	.st5_404-page-not-found-1-15{fill:#FFBC0E;}
</style>
<g id="device_404-page-not-found-1-15">
	<path class="st0_404-page-not-found-1-15 targetColor" d="M427.8,122.7v227.8c0,11-9.1,19.8-20.4,19.8H69.2c-5.6,0-11-2.2-14.9-6.3c-3.6-3.6-5.5-8.5-5.5-13.6V122.7&#10;&#9;&#9;c0-11,9.2-19.8,20.4-19.8h338.2C418.7,102.9,427.8,111.8,427.8,122.7z" style="fill: rgb(104, 225, 253);"/>
	<path class="st1_404-page-not-found-1-15" d="M407.4,372.6H69.2c-6.2,0-12.1-2.5-16.5-7c-4-4-6.2-9.5-6.2-15.1V122.7c0-12.2,10.2-22.1,22.6-22.1h338.2&#10;&#9;&#9;c12.5,0,22.6,9.9,22.6,22.1v227.8C430,362.7,419.9,372.6,407.4,372.6z M69.2,105.1c-10,0-18.2,7.9-18.2,17.6v227.8&#10;&#9;&#9;c0,4.5,1.8,8.8,4.9,12c3.5,3.6,8.3,5.6,13.3,5.6h338.2c10,0,18.2-7.9,18.2-17.6V122.7c0-9.7-8.2-17.6-18.2-17.6H69.2z"/>
	<polygon class="st0_404-page-not-found-1-15 targetColor" points="308.4,440 168.3,440 183.1,370.4 293.5,370.4 &#9;" style="fill: rgb(104, 225, 253);"/>
	<path class="st1_404-page-not-found-1-15" d="M308.4,442.3H168.3c-1.2,0-2.2-1-2.2-2.2c0-0.2,0-0.3,0.1-0.5l14.8-69.7c0.2-1,1.1-1.8,2.2-1.8h110.4&#10;&#9;&#9;c1,0,2,0.7,2.2,1.8l14.8,69.7c0.1,0.7,0,1.3-0.5,1.9C309.6,442,309,442.3,308.4,442.3z M171,437.8h134.6l-13.9-65.3H184.9&#10;&#9;&#9;L171,437.8z"/>
	<circle class="st1_404-page-not-found-1-15" cx="238.3" cy="341.1" r="8.6"/>
	<path class="st1_404-page-not-found-1-15" d="M238.3,351.9c-6,0-10.8-4.8-10.8-10.8c0-6,4.8-10.8,10.8-10.8s10.8,4.8,10.8,10.8l0,0&#10;&#9;&#9;C249.1,347,244.3,351.9,238.3,351.9z M238.3,334.7c-3.5,0-6.4,2.9-6.4,6.4s2.9,6.4,6.4,6.4c3.5,0,6.4-2.9,6.4-6.4l0,0&#10;&#9;&#9;C244.7,337.5,241.8,334.7,238.3,334.7z"/>
	<path class="st1_404-page-not-found-1-15" d="M427.8,121.8v193.3h-379V121.8c0-11,9.1-19.8,20.4-19.8h338.2C418.7,102,427.8,110.8,427.8,121.8z"/>
	<path class="st1_404-page-not-found-1-15" d="M427.8,317.4h-379c-1.2,0-2.2-1-2.2-2.2V121.8c0-12.2,10.2-22.1,22.6-22.1h338.2c12.5,0,22.6,9.9,22.6,22.1&#10;&#9;&#9;v193.3C430,316.4,429,317.4,427.8,317.4L427.8,317.4z M51,312.9h374.6V121.8c0-9.7-8.2-17.6-18.2-17.6H69.2&#10;&#9;&#9;c-10,0-18.2,7.9-18.2,17.6L51,312.9z"/>
	<path class="st0_404-page-not-found-1-15 targetColor" d="M147.8,417.6h181.1c2.8,0,5.1,2.3,5.1,5.1V435c0,2.8-2.3,5.1-5.1,5.1H147.8c-2.8,0-5.1-2.3-5.1-5.1v-12.3&#10;&#9;&#9;C142.7,419.9,144.9,417.6,147.8,417.6z" style="fill: rgb(104, 225, 253);"/>
	<path class="st1_404-page-not-found-1-15" d="M322.7,442.3H153.9c-7.4,0-13.4-6-13.4-13.4s6-13.4,13.4-13.4l0,0h168.8c7.4,0,13.4,6,13.4,13.4&#10;&#9;&#9;S330.1,442.3,322.7,442.3z M153.9,419.8c-5,0-9,4-9,9s4,9,9,9h168.8c5,0,9-4,9-9s-4-9-9-9H153.9z"/>
</g>
<g id="screen_404-page-not-found-1-15">
	<rect x="102.4" y="60" class="st2_404-page-not-found-1-15" width="271.8" height="255.2"/>
	<path class="st1_404-page-not-found-1-15" d="M374.2,317.4H102.4c-1.2,0-2.2-1-2.2-2.2V60c0-1.2,1-2.2,2.2-2.2c0,0,0,0,0,0h271.8c1.2,0,2.2,1,2.2,2.2&#10;&#9;&#9;c0,0,0,0,0,0v255.1C376.4,316.4,375.5,317.4,374.2,317.4z M104.6,312.9H372V62.2H104.6L104.6,312.9z"/>
	<rect x="102.4" y="60" class="st0_404-page-not-found-1-15 targetColor" width="271.8" height="19.5" style="fill: rgb(104, 225, 253);"/>
	<path class="st1_404-page-not-found-1-15" d="M374.2,81.7H102.4c-1.2,0-2.2-1-2.2-2.2V60c0-1.2,1-2.2,2.2-2.2c0,0,0,0,0,0h271.8c1.2,0,2.2,1,2.2,2.2&#10;&#9;&#9;c0,0,0,0,0,0v19.5C376.4,80.7,375.5,81.7,374.2,81.7z M104.6,77.3H372V62.2H104.6V77.3z"/>
	<path class="st1_404-page-not-found-1-15" d="M164.8,215.2h-32.4V202l30.3-46.2h17.2V202h9.6v13.2h-9.6v14.9h-15.1V215.2z M164.8,176.4h-0.2L148.1,202h16.7&#10;&#9;&#9;V176.4z"/>
	<path class="st1_404-page-not-found-1-15" d="M319.6,215.2h-32.4V202l30.4-46.2h17.2V202h9.6v13.2h-9.6v14.9h-15.1V215.2z M319.6,176.4h-0.2L302.9,202h16.7&#10;&#9;&#9;L319.6,176.4z"/>
	<path class="st1_404-page-not-found-1-15" d="M265.1,185.4c0,0-10.7-5.2-28.4,1.3s-22.4,17.4-22.4,17.4c5.1,14,20.7,21.2,34.7,16.1&#10;&#9;&#9;C263,215,270.2,199.4,265.1,185.4L265.1,185.4z"/>
	<path class="st1_404-page-not-found-1-15" d="M239.7,224c-12.3,0-23.2-7.7-27.4-19.2c-0.2-0.5-0.2-1.1,0.1-1.7c0.2-0.5,5.4-11.8,23.7-18.6&#10;&#9;&#9;s29.6-1.4,30.1-1.2c0.5,0.3,0.9,0.7,1.1,1.2c5.6,15.2-2.2,32-17.4,37.6C246.5,223.4,243.1,224,239.7,224z M216.7,204.2&#10;&#9;&#9;c5.2,12.7,19.7,18.8,32.4,13.6c12.1-4.9,18.3-18.3,14.2-30.7c-2.7-0.9-12-3.4-25.8,1.7S218.1,201.7,216.7,204.2z"/>
	
		<ellipse transform="matrix(0.9387 -0.3446 0.3446 0.9387 -52.7624 94.7309)" class="st0_404-page-not-found-1-15 targetColor" cx="240.1" cy="195.8" rx="43.6" ry="18.6" style="fill: rgb(104, 225, 253);"/>
	<path class="st1_404-page-not-found-1-15" d="M218.4,221c-11,0-19.1-3.2-21.4-9.5c-4-11,11.7-26.5,35.9-35.4c11.2-4.1,22.5-6.1,31.7-5.6&#10;&#9;&#9;c9.9,0.5,16.5,3.9,18.5,9.4l0,0c2,5.6-0.8,12.4-8,19.1c-6.7,6.4-16.6,12.1-27.8,16.2C236.8,219.1,226.8,221,218.4,221z&#10;&#9;&#9; M261.8,174.9c-8.1,0-17.8,1.9-27.4,5.4c-23.3,8.5-36,22.2-33.2,29.7s21.3,9.7,44.5,1.1c10.7-3.9,20-9.4,26.3-15.3&#10;&#9;&#9;c5.8-5.4,8.3-10.7,6.9-14.4l0,0c-1.4-3.7-6.7-6.1-14.6-6.5C263.5,174.9,262.7,174.9,261.8,174.9L261.8,174.9z"/>
	<path class="st3_404-page-not-found-1-15" d="M262.5,178.4c0,0-4.8,10.9-22.4,17.4s-28.4,1.2-28.4,1.2c-5.2-14,2-29.6,16.1-34.7S257.3,164.3,262.5,178.4&#10;&#9;&#9;L262.5,178.4z"/>
	<path class="st1_404-page-not-found-1-15" d="M223,201.2c-7.6,0-12-2.1-12.3-2.2c-0.5-0.3-0.9-0.7-1.1-1.2c-5.7-15.1,1.8-32,16.9-37.8&#10;&#9;&#9;c15.1-5.7,32,1.8,37.8,16.9c0.1,0.2,0.2,0.4,0.2,0.6c0.2,0.5,0.2,1.1,0,1.6c-0.2,0.5-5.4,11.8-23.7,18.6&#10;&#9;&#9;C235.1,200,229.1,201.1,223,201.2z M213.4,195.3c2.7,0.9,12,3.4,25.8-1.7s19.3-13,20.8-15.4c-5.2-12.7-19.7-18.8-32.4-13.6&#10;&#9;&#9;C215.6,169.6,209.4,183,213.4,195.3L213.4,195.3z"/>
	<path class="st4_404-page-not-found-1-15" d="M281.3,113.5L281.3,113.5l-151.4-0.9c-1.2,0-2.2-1-2.2-2.2c0-1.2,0.9-2.2,2.1-2.2c0,0,0.1,0,0.1,0l151.4,0.9&#10;&#9;&#9;c1.2,0.1,2.1,1.1,2.1,2.4C283.3,112.6,282.4,113.4,281.3,113.5L281.3,113.5z"/>
	<circle class="st1_404-page-not-found-1-15" cx="112.2" cy="69.6" r="2.8"/>
	<circle class="st1_404-page-not-found-1-15" cx="120.9" cy="69.6" r="2.8"/>
	<circle class="st1_404-page-not-found-1-15" cx="129.7" cy="69.6" r="2.8"/>
	<path class="st4_404-page-not-found-1-15" d="M243.7,134L243.7,134l-113.9-0.7c-1.2,0-2.2-1-2.2-2.2c0-1.2,1-2.2,2.2-2.2l0,0l113.9,0.7&#10;&#9;&#9;c1.2,0.1,2.1,1.1,2.1,2.4C245.7,133,244.8,133.9,243.7,134L243.7,134z"/>
</g>
<g id="speech-bubble-2_404-page-not-found-1-15">
	<path class="st5_404-page-not-found-1-15" d="M267.1,268.6h181.3c1.5,0,2.7,1.2,2.7,2.7v55.8c0,1.5-1.2,2.7-2.7,2.7H267.1c-1.5,0-2.7-1.2-2.7-2.7v-55.8&#10;&#9;&#9;C264.4,269.8,265.6,268.6,267.1,268.6z"/>
	<path class="st1_404-page-not-found-1-15" d="M445.2,332H270.5c-4.5,0-8.2-3.7-8.2-8.2v-49.1c0-4.5,3.7-8.2,8.2-8.2h174.7c4.6,0,8.2,3.7,8.2,8.2v49.1&#10;&#9;&#9;C453.4,328.3,449.7,332,445.2,332z M270.5,270.8c-2.1,0-3.8,1.7-3.8,3.8v49.1c0,2.1,1.7,3.8,3.8,3.8h174.7c2.1,0,3.8-1.7,3.8-3.8&#10;&#9;&#9;v-49.1c0-2.1-1.7-3.8-3.8-3.8L270.5,270.8z"/>
	<path class="st1_404-page-not-found-1-15" d="M278.3,289.8h5.6l8,13.1h0.1v-13.1h4.1v18.8h-5.4l-8.2-13.4h-0.1v13.4h-4.2V289.8z"/>
	<path class="st1_404-page-not-found-1-15" d="M299,299.2c0-1.4,0.2-2.8,0.8-4.1c0.5-1.2,1.2-2.2,2.1-3.1c0.9-0.9,2-1.6,3.2-2c2.6-0.9,5.5-0.9,8.1,0&#10;&#9;&#9;c1.2,0.4,2.3,1.1,3.2,2c0.9,0.9,1.6,1.9,2.1,3.1c1,2.6,1,5.5,0,8.2c-0.5,1.2-1.2,2.2-2.1,3.1c-0.9,0.9-2,1.6-3.2,2&#10;&#9;&#9;c-2.6,0.9-5.5,0.9-8.1,0c-1.2-0.4-2.3-1.1-3.2-2c-0.9-0.9-1.6-1.9-2.1-3.1C299.2,302,299,300.6,299,299.2z M303.3,299.2&#10;&#9;&#9;c0,0.8,0.1,1.7,0.4,2.4c0.5,1.4,1.6,2.6,3,3.2c1.5,0.6,3.3,0.6,4.8,0c0.7-0.3,1.3-0.7,1.9-1.3c0.5-0.6,0.9-1.2,1.2-1.9&#10;&#9;&#9;c0.5-1.6,0.5-3.3,0-4.9c-0.3-0.7-0.7-1.4-1.2-1.9c-0.5-0.5-1.2-1-1.9-1.3c-1.5-0.6-3.3-0.6-4.8,0c-0.7,0.3-1.3,0.7-1.8,1.3&#10;&#9;&#9;c-0.5,0.6-0.9,1.2-1.2,1.9C303.4,297.6,303.2,298.4,303.3,299.2L303.3,299.2z"/>
	<path class="st1_404-page-not-found-1-15" d="M325.7,293.5h-5.4v-3.7h14.9v3.7h-5.4v15.1h-4.1V293.5z"/>
	<path class="st1_404-page-not-found-1-15" d="M345.4,289.8H358v3.8h-8.5v3.8h7.8v3.8h-7.8v7.3h-4.1L345.4,289.8z"/>
	<path class="st1_404-page-not-found-1-15" d="M359.9,299.2c0-1.4,0.2-2.8,0.8-4.1c0.5-1.2,1.2-2.2,2.1-3.1c0.9-0.9,2-1.6,3.2-2c2.6-0.9,5.5-0.9,8.1,0&#10;&#9;&#9;c1.2,0.4,2.3,1.1,3.2,2c0.9,0.9,1.6,1.9,2.1,3.1c1,2.6,1,5.5,0,8.2c-0.5,1.2-1.2,2.2-2.1,3.1c-0.9,0.9-2,1.6-3.2,2&#10;&#9;&#9;c-2.6,0.9-5.5,0.9-8.1,0c-1.2-0.4-2.3-1.1-3.2-2c-0.9-0.9-1.6-1.9-2.1-3.1C360.2,302,359.9,300.6,359.9,299.2z M364.2,299.2&#10;&#9;&#9;c0,0.8,0.1,1.7,0.4,2.4c0.3,0.7,0.7,1.4,1.2,1.9c0.5,0.5,1.2,1,1.9,1.3c1.5,0.6,3.3,0.6,4.8,0c1.4-0.6,2.5-1.7,3-3.2&#10;&#9;&#9;c0.5-1.6,0.5-3.3,0-4.9c-0.3-0.7-0.7-1.4-1.2-1.9c-0.5-0.5-1.2-1-1.9-1.3c-1.5-0.6-3.3-0.6-4.8,0c-0.7,0.3-1.3,0.7-1.9,1.3&#10;&#9;&#9;c-0.5,0.6-0.9,1.2-1.2,1.9C364.4,297.6,364.2,298.4,364.2,299.2z"/>
	<path class="st1_404-page-not-found-1-15" d="M398.9,301.4c0,1-0.2,2.1-0.5,3.1c-0.3,0.9-0.8,1.8-1.5,2.5c-0.7,0.7-1.5,1.3-2.5,1.6c-2.2,0.8-4.7,0.8-6.9,0&#10;&#9;&#9;c-1.9-0.7-3.3-2.2-4-4.1c-0.3-1-0.5-2-0.5-3.1v-11.6h4.1v11.4c0,0.6,0.1,1.1,0.3,1.6c0.2,0.5,0.4,0.9,0.8,1.3&#10;&#9;&#9;c0.3,0.4,0.8,0.7,1.2,0.9c0.5,0.2,1,0.3,1.5,0.3c0.5,0,1-0.1,1.5-0.3c0.5-0.2,0.9-0.5,1.2-0.9c0.3-0.4,0.6-0.8,0.8-1.3&#10;&#9;&#9;c0.2-0.5,0.3-1.1,0.3-1.6v-11.4h4.1L398.9,301.4z"/>
	<path class="st1_404-page-not-found-1-15" d="M402.8,289.8h5.6l8,13.1h0v-13.1h4.1v18.8h-5.4l-8.2-13.4h0v13.4h-4.1L402.8,289.8z"/>
	<path class="st1_404-page-not-found-1-15" d="M424.4,289.8h6.2c1.4,0,2.9,0.2,4.3,0.5c1.3,0.3,2.5,0.9,3.5,1.6c1,0.8,1.9,1.8,2.4,2.9&#10;&#9;&#9;c0.6,1.4,0.9,2.9,0.9,4.4c0,1.4-0.3,2.8-0.9,4c-0.6,1.1-1.3,2.1-2.3,2.9c-1,0.8-2.1,1.4-3.4,1.8c-1.3,0.4-2.6,0.6-4,0.6h-6.8V289.8&#10;&#9;&#9;z M428.5,304.8h2.1c0.9,0,1.8-0.1,2.7-0.3c0.8-0.2,1.5-0.5,2.1-1c0.6-0.5,1.1-1.1,1.4-1.8c0.4-0.9,0.5-1.8,0.5-2.7&#10;&#9;&#9;c0-0.8-0.2-1.7-0.5-2.4c-0.3-0.7-0.8-1.2-1.4-1.7c-0.6-0.5-1.3-0.8-2.1-1c-0.8-0.2-1.6-0.3-2.5-0.3h-2.5V304.8z"/>
</g>
<g id="speech-bubble-1_404-page-not-found-1-15">
	<path class="st5_404-page-not-found-1-15" d="M67.1,247.7h119.6c1.2,0,2.2,1,2.2,2.2v43.6c0,1.2-1,2.2-2.2,2.2H67.1c-1.2,0-2.2-1-2.2-2.2v-43.6&#10;&#9;&#9;C64.8,248.7,65.8,247.7,67.1,247.7z"/>
	<path class="st1_404-page-not-found-1-15" d="M184,298H69.8c-3.9,0-7.1-3.2-7.1-7.1v-38.2c0-3.9,3.2-7.1,7.1-7.1H184c3.9,0,7.1,3.2,7.1,7.1v38.2&#10;&#9;&#9;C191.1,294.8,187.9,298,184,298z M69.8,249.9c-1.5,0-2.7,1.2-2.7,2.7c0,0,0,0,0,0v38.2c0,1.5,1.2,2.7,2.7,2.7c0,0,0,0,0,0H184&#10;&#9;&#9;c1.5,0,2.7-1.2,2.7-2.7v-38.2c0-1.5-1.2-2.7-2.7-2.7L69.8,249.9z"/>
	<path class="st1_404-page-not-found-1-15" d="M73.8,270.2c0-1.5,0.3-3.1,0.8-4.5c0.5-1.3,1.3-2.5,2.3-3.4c1-1,2.2-1.7,3.6-2.2c2.9-1,6.1-1,9,0&#10;&#9;&#9;c1.3,0.5,2.5,1.2,3.6,2.2c1,1,1.8,2.1,2.3,3.4c1.1,2.9,1.1,6.1,0,9c-0.5,1.3-1.3,2.5-2.3,3.4c-1,1-2.2,1.7-3.6,2.2&#10;&#9;&#9;c-2.9,1-6.1,1-9,0c-1.3-0.5-2.5-1.2-3.6-2.1c-1-1-1.8-2.1-2.3-3.4C74.1,273.3,73.8,271.8,73.8,270.2z M78.6,270.2&#10;&#9;&#9;c0,0.9,0.1,1.8,0.5,2.7c0.6,1.6,1.8,2.9,3.3,3.5c1.7,0.7,3.6,0.7,5.3,0c1.5-0.7,2.7-1.9,3.3-3.5c0.6-1.7,0.6-3.6,0-5.3&#10;&#9;&#9;c-0.3-0.8-0.7-1.5-1.3-2.1c-0.6-0.6-1.2-1.1-2-1.4c-1.7-0.7-3.6-0.7-5.3,0c-0.8,0.3-1.4,0.8-2,1.4c-0.6,0.6-1,1.3-1.3,2.1&#10;&#9;&#9;C78.8,268.4,78.6,269.3,78.6,270.2z"/>
	<path class="st1_404-page-not-found-1-15" d="M101.2,270.2c0-1.5,0.3-3.1,0.8-4.5c0.5-1.3,1.3-2.5,2.3-3.4c1-1,2.2-1.7,3.5-2.2c2.9-1,6.1-1,9,0&#10;&#9;&#9;c1.3,0.5,2.5,1.2,3.5,2.2c1,1,1.8,2.1,2.3,3.4c1.1,2.9,1.1,6.1,0,9c-0.5,1.3-1.3,2.5-2.3,3.4c-1,1-2.2,1.7-3.5,2.2&#10;&#9;&#9;c-2.9,1-6.1,1-9,0c-1.3-0.5-2.5-1.2-3.5-2.2c-1-1-1.8-2.1-2.3-3.4C101.4,273.3,101.1,271.7,101.2,270.2z M105.9,270.2&#10;&#9;&#9;c0,0.9,0.1,1.8,0.4,2.7c0.3,0.8,0.7,1.5,1.3,2.1c0.6,0.6,1.2,1.1,2,1.4c1.7,0.7,3.6,0.7,5.3,0c0.8-0.3,1.4-0.8,2-1.4&#10;&#9;&#9;c0.6-0.6,1-1.3,1.3-2.1c0.6-1.7,0.6-3.6,0-5.3c-0.3-0.8-0.7-1.5-1.3-2.1c-0.6-0.6-1.2-1.1-2-1.4c-1.7-0.7-3.6-0.7-5.3,0&#10;&#9;&#9;c-0.8,0.3-1.4,0.8-2,1.4c-0.6,0.6-1,1.3-1.3,2.1C106,268.4,105.9,269.3,105.9,270.2z"/>
	<path class="st1_404-page-not-found-1-15" d="M129.6,259.8h7.7c1,0,2,0.1,3,0.3c0.9,0.2,1.7,0.5,2.5,1c0.7,0.5,1.3,1.2,1.7,1.9c0.5,1,0.7,2,0.6,3.1&#10;&#9;&#9;c0,1-0.2,2.1-0.6,3c-0.4,0.8-0.9,1.5-1.6,2c-0.7,0.5-1.6,0.8-2.4,1c-1,0.2-2,0.3-3.1,0.3h-3.3v8.1h-4.6L129.6,259.8z M134.1,268.6&#10;&#9;&#9;h3.1c0.4,0,0.8,0,1.2-0.1c0.4-0.1,0.7-0.2,1-0.4c0.3-0.2,0.6-0.4,0.7-0.8c0.2-0.4,0.3-0.8,0.3-1.2c0-0.5-0.1-0.9-0.4-1.3&#10;&#9;&#9;c-0.2-0.3-0.6-0.6-0.9-0.8c-0.4-0.2-0.8-0.3-1.3-0.3c-0.4,0-0.9-0.1-1.3-0.1h-2.4L134.1,268.6z"/>
	<path class="st1_404-page-not-found-1-15" d="M161.2,264.9c-0.4-0.5-0.9-0.8-1.5-1c-0.6-0.2-1.2-0.3-1.8-0.3c-0.3,0-0.7,0-1,0.1c-0.3,0.1-0.7,0.2-1,0.4&#10;&#9;&#9;c-0.3,0.2-0.6,0.4-0.8,0.7c-0.2,0.3-0.3,0.6-0.3,1c0,0.6,0.2,1.1,0.7,1.4c0.5,0.4,1.1,0.7,1.8,0.9c0.7,0.2,1.5,0.5,2.3,0.7&#10;&#9;&#9;c0.8,0.2,1.6,0.6,2.3,1c1.7,0.9,2.6,2.7,2.5,4.6c0,1-0.2,2.1-0.6,3c-0.4,0.8-1,1.6-1.7,2.1c-0.8,0.6-1.6,1-2.6,1.3&#10;&#9;&#9;c-1,0.3-2,0.4-3.1,0.4c-1.3,0-2.5-0.2-3.8-0.6c-1.2-0.4-2.3-1.1-3.2-2l3.2-3.6c0.5,0.6,1.1,1.1,1.8,1.5c0.7,0.3,1.5,0.5,2.2,0.5&#10;&#9;&#9;c0.4,0,0.8,0,1.1-0.1c0.3-0.1,0.7-0.2,1-0.4c0.3-0.2,0.5-0.4,0.7-0.7c0.2-0.3,0.3-0.6,0.3-1c0-0.6-0.2-1.1-0.7-1.5&#10;&#9;&#9;c-0.5-0.4-1.2-0.7-1.8-0.9c-0.7-0.2-1.5-0.5-2.3-0.8c-0.8-0.2-1.6-0.6-2.4-1c-0.7-0.4-1.3-1-1.8-1.7c-0.5-0.8-0.8-1.8-0.7-2.8&#10;&#9;&#9;c0-1,0.2-2,0.7-2.9c0.4-0.8,1-1.6,1.8-2.1c0.8-0.6,1.6-1,2.5-1.3c1-0.3,2-0.4,3-0.4c1.2,0,2.3,0.2,3.4,0.5c1.1,0.3,2.1,0.9,3,1.7&#10;&#9;&#9;L161.2,264.9z"/>
	<path class="st1_404-page-not-found-1-15" d="M172.4,278.1c0-0.4,0.1-0.7,0.2-1c0.1-0.3,0.3-0.6,0.6-0.9c0.2-0.3,0.5-0.4,0.9-0.6c0.3-0.1,0.7-0.2,1-0.2&#10;&#9;&#9;c0.4,0,0.7,0.1,1.1,0.2c0.3,0.1,0.6,0.3,0.9,0.6c0.2,0.2,0.4,0.5,0.6,0.9c0.3,0.7,0.3,1.4,0,2.1c-0.1,0.3-0.3,0.6-0.6,0.9&#10;&#9;&#9;c-0.2,0.2-0.5,0.4-0.9,0.6c-0.3,0.1-0.7,0.2-1.1,0.2c-0.3,0-0.7-0.1-1-0.2c-0.3-0.1-0.6-0.3-0.9-0.6&#10;&#9;&#9;C172.7,279.5,172.4,278.8,172.4,278.1L172.4,278.1z M177.3,273.7h-4.4v-13.9h4.4V273.7z"/>
</g>
<g id="warning_404-page-not-found-1-15">
	<path class="st2_404-page-not-found-1-15" d="M377.8,133.4H310c-3.7,0-6.7-3-6.7-6.7c0-1.4,0.4-2.7,1.2-3.8l33.9-49.3c2.1-3,6.3-3.8,9.3-1.7&#10;&#9;&#9;c0.7,0.5,1.2,1,1.7,1.7l33.9,49.3c2.1,3,1.3,7.2-1.7,9.3C380.4,133,379.1,133.4,377.8,133.4z"/>
	<path class="st1_404-page-not-found-1-15" d="M377.8,135.6H310c-4.9,0-8.9-4-8.9-8.9c0-1.8,0.5-3.6,1.6-5l33.9-49.3c2.8-4,8.3-5.1,12.4-2.3&#10;&#9;&#9;c0.9,0.6,1.7,1.4,2.3,2.3l33.9,49.3c2.8,4.1,1.8,9.6-2.3,12.4C381.3,135,379.5,135.6,377.8,135.6L377.8,135.6z M343.9,73&#10;&#9;&#9;c-1.5,0-2.9,0.7-3.7,1.9l-33.9,49.3c-1.4,2-0.9,4.8,1.2,6.2c0.7,0.5,1.6,0.8,2.5,0.8h67.7c2.5,0,4.5-2,4.5-4.5&#10;&#9;&#9;c0-0.9-0.3-1.8-0.8-2.5l-33.9-49.3C346.8,73.7,345.4,73,343.9,73z"/>
	<path class="st1_404-page-not-found-1-15" d="M339.5,117.1c0-0.6,0.1-1.2,0.3-1.7c0.4-1.1,1.3-1.9,2.3-2.3c1.1-0.4,2.3-0.4,3.4,0c0.5,0.2,1,0.5,1.4,0.9&#10;&#9;&#9;c0.4,0.4,0.7,0.9,0.9,1.4c0.2,0.5,0.3,1.1,0.3,1.7c0,0.6-0.1,1.2-0.3,1.7c-0.4,1.1-1.3,1.9-2.3,2.3c-1.1,0.4-2.3,0.4-3.4,0&#10;&#9;&#9;c-0.5-0.2-1-0.5-1.4-0.9c-0.4-0.4-0.7-0.9-0.9-1.4C339.6,118.2,339.5,117.7,339.5,117.1z M347.5,110h-7.2V87.4h7.2V110z"/>
</g>
</svg>